<svg width="28" height="28" viewBox="0 0 28 28" fill="none" xmlns="http://www.w3.org/2000/svg">
<path d="M5.79996 20.8C6.93329 19.9333 8.19996 19.25 9.59996 18.75C11 18.25 12.4666 18 14 18C15.5333 18 17 18.25 18.4 18.75C19.8 19.25 21.0666 19.9333 22.2 20.8C22.9777 19.8888 23.5833 18.8555 24.0166 17.7C24.45 16.5444 24.6666 15.3111 24.6666 14C24.6666 11.0444 23.6277 8.52774 21.55 6.44996C19.4722 4.37218 16.9555 3.33329 14 3.33329C11.0444 3.33329 8.52774 4.37218 6.44996 6.44996C4.37218 8.52774 3.33329 11.0444 3.33329 14C3.33329 15.3111 3.54996 16.5444 3.98329 17.7C4.41663 18.8555 5.02218 19.8888 5.79996 20.8ZM14 15.3333C12.6888 15.3333 11.5833 14.8833 10.6833 13.9833C9.78329 13.0833 9.33329 11.9777 9.33329 10.6666C9.33329 9.35551 9.78329 8.24996 10.6833 7.34996C11.5833 6.44996 12.6888 5.99996 14 5.99996C15.3111 5.99996 16.4166 6.44996 17.3166 7.34996C18.2166 8.24996 18.6666 9.35551 18.6666 10.6666C18.6666 11.9777 18.2166 13.0833 17.3166 13.9833C16.4166 14.8833 15.3111 15.3333 14 15.3333ZM14 27.3333C12.1555 27.3333 10.4222 26.9833 8.79996 26.2833C7.17774 25.5833 5.76663 24.6333 4.56663 23.4333C3.36663 22.2333 2.41663 20.8222 1.71663 19.2C1.01663 17.5777 0.666626 15.8444 0.666626 14C0.666626 12.1555 1.01663 10.4222 1.71663 8.79996C2.41663 7.17774 3.36663 5.76663 4.56663 4.56663C5.76663 3.36663 7.17774 2.41663 8.79996 1.71663C10.4222 1.01663 12.1555 0.666626 14 0.666626C15.8444 0.666626 17.5777 1.01663 19.2 1.71663C20.8222 2.41663 22.2333 3.36663 23.4333 4.56663C24.6333 5.76663 25.5833 7.17774 26.2833 8.79996C26.9833 10.4222 27.3333 12.1555 27.3333 14C27.3333 15.8444 26.9833 17.5777 26.2833 19.2C25.5833 20.8222 24.6333 22.2333 23.4333 23.4333C22.2333 24.6333 20.8222 25.5833 19.2 26.2833C17.5777 26.9833 15.8444 27.3333 14 27.3333Z" fill="#1C1B1F"/>
</svg>
