<svg width="0" height="0" class="hidden">
  <symbol xmlns="http://www.w3.org/2000/svg" viewBox="0 0 24 24" id="brush">
    <path d="M21.6291 -0.00011942C22.848 -0.00011942 23.9726 0.910166 23.9726 2.18302C23.9726 2.89274 23.6914 3.57588 23.37 4.20502C22.3251 6.18674 18.816 12.7362 17.142 14.2765C16.3251 15.0402 15.3609 15.4953 14.2226 15.4953C11.9589 15.4953 10.1109 13.5667 10.1109 11.3167C10.1109 10.2453 10.5531 9.20045 11.3426 8.47702L19.8874 0.722452C20.3563 0.293881 20.9726 -0.000976562 21.6283 -0.000976562L21.6291 -0.00011942ZM9.45514 13.8479C10.1511 15.2005 11.424 16.2187 12.8974 16.607L12.9111 17.5576C12.9917 21.3745 10.3397 23.9999 6.50914 23.9999C1.96886 23.9999 0 20.3836 0 16.2719C0.495429 16.607 2.22343 17.9862 2.78571 17.9862C3.12086 17.9862 3.402 17.7985 3.522 17.4907C4.66029 14.5173 6.44143 13.9816 9.45514 13.8479Z"></path>
  </symbol>
  <symbol xmlns="http://www.w3.org/2000/svg" viewBox="0 0 13 14" id="calendar">
    <path d="M1.1875 13.0096C0.904167 13.0096 0.65625 12.9159 0.44375 12.7284C0.23125 12.5409 0.125 12.3221 0.125 12.0721V2.38464C0.125 2.13464 0.23125 1.91589 0.44375 1.72839C0.65625 1.54089 0.904167 1.44714 1.1875 1.44714H2.33854V0.509644H3.48958V1.44714H9.51042V0.509644H10.6615V1.44714H11.8125C12.0958 1.44714 12.3437 1.54089 12.5562 1.72839C12.7687 1.91589 12.875 2.13464 12.875 2.38464V12.0721C12.875 12.3221 12.7687 12.5409 12.5562 12.7284C12.3437 12.9159 12.0958 13.0096 11.8125 13.0096H1.1875ZM1.1875 12.0721H11.8125V5.35339H1.1875V12.0721ZM1.1875 4.41589H11.8125V2.38464H1.1875V4.41589Z"></path>
  </symbol>
  <symbol xmlns="http://www.w3.org/2000/svg" viewBox="0 0 16 16" id="call">
    <path d="M14.5625 15.4673C12.8681 15.4673 11.184 15.0506 9.51042 14.2173C7.83681 13.384 6.33333 12.3006 5 10.9673C3.66667 9.63395 2.58333 8.13048 1.75 6.45687C0.916667 4.78326 0.5 3.09923 0.5 1.40479C0.5 1.1409 0.590278 0.918674 0.770833 0.738119C0.951389 0.557563 1.17361 0.467285 1.4375 0.467285H4.35417C4.54861 0.467285 4.71875 0.533257 4.86458 0.665202C5.01042 0.797146 5.10417 0.97423 5.14583 1.19645L5.70833 3.82145C5.73611 4.0159 5.73264 4.19298 5.69792 4.3527C5.66319 4.51242 5.59028 4.64784 5.47917 4.75895L3.39583 6.86312C4.17361 8.15479 5.04514 9.27979 6.01042 10.2381C6.97569 11.1965 8.06944 12.009 9.29167 12.6756L11.2708 10.634C11.4097 10.4812 11.5694 10.3735 11.75 10.311C11.9306 10.2485 12.1111 10.2381 12.2917 10.2798L14.7708 10.8215C14.9792 10.8631 15.1528 10.9673 15.2917 11.134C15.4306 11.3006 15.5 11.4951 15.5 11.7173V14.5298C15.5 14.7937 15.4097 15.0159 15.2292 15.1965C15.0486 15.377 14.8264 15.4673 14.5625 15.4673Z"></path>
  </symbol>
  <symbol xmlns="http://www.w3.org/2000/svg" viewBox="0 96 960 960" id="chevron-right">
    <path d="m375 816-43-43 198-198-198-198 43-43 241 241-241 241Z"></path>
  </symbol>
  <symbol xmlns="http://www.w3.org/2000/svg" viewBox="0 96 960 960" id="arrow-upward">
    <path d="M450 896V370L202 618l-42-42 320-320 320 320-42 42-248-248v526h-60Z"></path>
  </symbol>
  <symbol xmlns="http://www.w3.org/2000/svg" viewBox="0 0 19 16" id="right-arrow-head">
    <path d="M0 16V9.875L7.55 8L0 6.075V0L19 8L0 16Z"></path>
  </symbol>
  <symbol fill="none" xmlns="http://www.w3.org/2000/svg" viewBox="0 0 30 44" id="figma-logo">
    <g clip-path="url(#clip0_468_630)">
      <path d="M7.75148 43.5C11.7527 43.5 15 40.252 15 36.25V29H7.75148C3.75028 29 0.50293 32.248 0.50293 36.25C0.50293 40.252 3.75028 43.5 7.75148 43.5Z" fill="#0ACF83"></path>
      <path d="M0.50293 21.75C0.50293 17.748 3.75028 14.5 7.75148 14.5H15V29H7.75148C3.75028 29 0.50293 25.752 0.50293 21.75Z" fill="#A259FF"></path>
      <path d="M0.50293 7.25C0.50293 3.248 3.75028 0 7.75148 0H15V14.5H7.75148C3.75028 14.5 0.50293 11.252 0.50293 7.25Z" fill="#F24E1E"></path>
      <path d="M15 0H22.2486C26.2498 0 29.4971 3.248 29.4971 7.25C29.4971 11.252 26.2498 14.5 22.2486 14.5H15V0Z" fill="#FF7262"></path>
      <path d="M29.4971 21.75C29.4971 25.752 26.2498 29 22.2486 29C18.2474 29 15 25.752 15 21.75C15 17.748 18.2474 14.5 22.2486 14.5C26.2498 14.5 29.4971 17.748 29.4971 21.75Z" fill="#1ABCFE"></path>
    </g>
    <defs>
      <clipPath id="clip0_468_630">
        <rect width="29" height="43.5" fill="white" transform="translate(0.5)"></rect>
      </clipPath>
    </defs>
  </symbol>
  <symbol xmlns="http://www.w3.org/2000/svg" viewBox="0 96 960 960" id="close">
    <path d="m249 849-42-42 231-231-231-231 42-42 231 231 231-231 42 42-231 231 231 231-42 42-231-231-231 231Z"></path>
  </symbol>
  <symbol xmlns="http://www.w3.org/2000/svg" viewBox="0 0 32 32" id="cog">
    <path d="M14.9334 16.0001C14.9334 13.4823 13.0166 11.4286 10.6668 11.4286C8.31689 11.4286 6.40009 13.4823 6.40009 16.0001C6.40009 18.5178 8.31689 20.5715 10.6668 20.5715C13.0166 20.5715 14.9334 18.5178 14.9334 16.0001ZM27.7334 25.1429C27.7334 23.8926 26.767 22.8572 25.6001 22.8572C24.4332 22.8572 23.4668 23.8926 23.4668 25.1429C23.4668 26.4103 24.4332 27.4286 25.6001 27.4286C26.783 27.4286 27.7334 26.3932 27.7334 25.1429ZM27.7334 6.85719C27.7334 5.60691 26.767 4.57148 25.6001 4.57148C24.4332 4.57148 23.4668 5.60691 23.4668 6.85719C23.4668 8.12462 24.4332 9.14291 25.6001 9.14291C26.783 9.14291 27.7334 8.10748 27.7334 6.85719ZM21.3334 14.3749V17.6789C21.3334 17.9109 21.167 18.1795 20.9505 18.2149L18.367 18.6435C18.2337 19.1075 18.0502 19.5543 17.8337 20.0012C18.3009 20.7155 18.8001 21.3761 19.3334 22.0549C19.4006 22.1623 19.4497 22.2686 19.4497 22.4126C19.4497 22.5372 19.4166 22.6629 19.3334 22.7521C18.9996 23.2343 17.1329 25.4126 16.6497 25.4126C16.5164 25.4126 16.4001 25.3589 16.2998 25.2881L14.383 23.6812C13.966 23.9132 13.55 24.0915 13.0998 24.2343C13.0166 25.1452 12.9334 26.1269 12.7169 27.0023C12.6497 27.2526 12.4502 27.4309 12.2166 27.4309H9.11689C8.88329 27.4309 8.64969 27.2343 8.61662 26.9841L8.23369 24.2515C7.80062 24.1086 7.38356 23.9121 6.98356 23.6983L5.01662 25.2881C4.93342 25.3772 4.80009 25.4126 4.68276 25.4126C4.54942 25.4126 4.43316 25.3589 4.33289 25.2698C3.89982 24.8412 1.93289 22.9303 1.93289 22.4126C1.93289 22.2881 1.98302 22.1806 2.04916 22.0732C2.53236 21.3943 3.03262 20.7338 3.51582 20.0378C3.28222 19.5555 3.08276 19.0732 2.93236 18.5738L0.399023 18.1452C0.165423 18.1098 -0.000976562 17.8778 -0.000976562 17.6275V14.3235C-0.000976562 14.0915 0.165423 13.8229 0.381957 13.7875L2.96542 13.3589C3.09876 12.8949 3.28222 12.4481 3.49876 12.0012C3.03156 11.2869 2.53236 10.6263 1.99902 9.94748C1.93182 9.84005 1.88276 9.71548 1.88276 9.58977C1.88276 9.46405 1.91582 9.33948 1.99902 9.23205C2.33289 8.74977 4.19956 6.58977 4.68276 6.58977C4.81609 6.58977 4.93236 6.64348 5.03262 6.71434L6.94942 8.32119C7.36649 8.08919 7.78249 7.91091 8.23262 7.74977C8.31582 6.85719 8.39902 5.87434 8.61556 5.00005C8.68276 4.74977 8.88222 4.57148 9.11582 4.57148H12.2156C12.4492 4.57148 12.6828 4.76805 12.7158 5.01834L13.0988 7.75091C13.5318 7.89377 13.9489 8.09034 14.3489 8.30405L16.3158 6.71434C16.4161 6.6252 16.5324 6.58977 16.6497 6.58977C16.783 6.58977 16.8993 6.64348 16.9996 6.73262C17.4326 7.16119 19.3996 9.09034 19.3996 9.58977C19.3996 9.71434 19.3494 9.82177 19.2833 9.92919C18.8001 10.6252 18.2998 11.2686 17.8337 11.9646C18.0502 12.4469 18.2508 12.9292 18.4001 13.4286L20.9334 13.8389C21.167 13.8926 21.3334 14.1246 21.3334 14.3749ZM32.0001 23.8926V26.3932C32.0001 26.6606 29.8497 26.9109 29.5169 26.9463C29.3836 27.2858 29.2172 27.5886 29.0166 27.8743C29.167 28.232 29.8668 30.0172 29.8668 30.3383C29.8668 30.392 29.8497 30.4275 29.7996 30.4629C29.6001 30.5875 27.8166 31.7303 27.7334 31.7303C27.5169 31.7303 26.2668 29.944 26.1004 29.6766C25.934 29.6949 25.7665 29.712 25.6001 29.712C25.4337 29.712 25.2662 29.6938 25.0998 29.6766C24.9334 29.944 23.6833 31.7303 23.4668 31.7303C23.3836 31.7303 21.6001 30.5875 21.4006 30.4629C21.3505 30.4275 21.3334 30.3738 21.3334 30.3383C21.3334 30.0343 22.0332 28.2309 22.1836 27.8743C21.9841 27.5886 21.8166 27.2846 21.6833 26.9463C21.3494 26.9109 19.2001 26.6606 19.2001 26.3932V23.8926C19.2001 23.6252 21.3505 23.3749 21.6833 23.3395C21.8166 23.0183 21.983 22.6972 22.1836 22.4115C22.0332 22.0538 21.3334 20.2503 21.3334 19.9475C21.3334 19.9121 21.3505 19.8583 21.4006 19.8229C21.6001 19.7155 23.3836 18.5726 23.4668 18.5726C23.6833 18.5726 24.9334 20.3406 25.0998 20.6081C25.2662 20.5898 25.4337 20.5726 25.6001 20.5726C25.7665 20.5726 25.934 20.5909 26.1004 20.6081C26.5676 19.9121 27.0668 19.2149 27.6332 18.6081L27.7334 18.5726C27.8166 18.5726 29.6001 19.6972 29.7996 19.8229C29.8497 19.8583 29.8668 19.9121 29.8668 19.9475C29.8668 20.2686 29.167 22.0549 29.0166 22.4115C29.2161 22.6972 29.3836 23.0183 29.5169 23.3395C29.8508 23.3749 32.0001 23.6252 32.0001 23.8926ZM32.0001 5.60691V8.10634C32.0001 8.37377 29.8497 8.62405 29.5169 8.65948C29.3836 8.99891 29.2172 9.30177 29.0166 9.58748C29.167 9.94519 29.8668 11.7303 29.8668 12.0515C29.8668 12.1052 29.8497 12.1406 29.7996 12.1761C29.6001 12.3006 27.8166 13.4435 27.7334 13.4435C27.5169 13.4435 26.2668 11.6572 26.1004 11.3898C25.934 11.4081 25.7665 11.4252 25.6001 11.4252C25.4337 11.4252 25.2662 11.4069 25.0998 11.3898C24.9334 11.6572 23.6833 13.4435 23.4668 13.4435C23.3836 13.4435 21.6001 12.3006 21.4006 12.1761C21.3505 12.1406 21.3334 12.0869 21.3334 12.0515C21.3334 11.7475 22.0332 9.94405 22.1836 9.58748C21.9841 9.30177 21.8166 8.99777 21.6833 8.65948C21.3494 8.62405 19.2001 8.37377 19.2001 8.10634V5.60577C19.2001 5.33834 21.3505 5.08805 21.6833 5.05262C21.8166 4.73148 21.983 4.41034 22.1836 4.12462C22.0332 3.76691 21.3334 1.96348 21.3334 1.66062C21.3334 1.6252 21.3505 1.57148 21.4006 1.53605C21.6001 1.42862 23.3836 0.285767 23.4668 0.285767C23.6833 0.285767 24.9334 2.05377 25.0998 2.32119C25.2662 2.30291 25.4337 2.28577 25.6001 2.28577C25.7665 2.28577 25.934 2.30405 26.1004 2.32119C26.5676 1.62519 27.0668 0.928052 27.6332 0.321195L27.7334 0.285767C27.8166 0.285767 29.6001 1.41034 29.7996 1.53605C29.8497 1.57148 29.8668 1.6252 29.8668 1.66062C29.8668 1.98177 29.167 3.76805 29.0166 4.12462C29.2161 4.41034 29.3836 4.73148 29.5169 5.05262C29.8508 5.08805 32.0001 5.33948 32.0001 5.60691Z"></path>
  </symbol>
  <symbol xmlns="http://www.w3.org/2000/svg" viewBox="0 0 28 28" id="computer">
    <path d="M26.25 21C26.25 21 19.0312 21 17.5 21C15.9688 21 19.25 26.25 19.25 26.25C19.25 27.216 18.466 28 17.5 28H10.5C9.534 28 8.75 27.216 8.75 26.25C8.75 26.25 12.0855 21 10.5 21C8.9145 21 1.75 21 1.75 21C0.784 21 0 20.216 0 19.25V1.75C0 0.784 0.784 0 1.75 0H26.25C27.216 0 28 0.784 28 1.75V19.25C28 20.216 27.216 21 26.25 21ZM14 20.125C14.966 20.125 15.75 19.341 15.75 18.375C15.75 17.409 14.966 16.625 14 16.625C13.034 16.625 12.25 17.409 12.25 18.375C12.25 19.341 13.034 20.125 14 20.125ZM26.25 3.5C26.25 2.534 25.466 1.75 24.5 1.75H3.5C2.534 1.75 1.75 2.534 1.75 3.5V14C1.75 14.966 2.534 15.75 3.5 15.75H24.5C25.466 15.75 26.25 14.966 26.25 14V3.5Z"></path>
  </symbol>
  <symbol xmlns="http://www.w3.org/2000/svg" viewBox="0 0 16 16" id="dark">
    <path d="M6.21474 15.3813C4.20646 14.8432 2.68776 13.6829 1.65865 11.9004C0.629535 10.118 0.384037 8.22259 0.922154 6.21431C1.46027 4.20603 2.62057 2.68733 4.40305 1.65821C6.18552 0.6291 8.0809 0.383601 10.0892 0.921718C10.1963 0.950418 10.3092 0.984259 10.4279 1.02324C10.5466 1.06222 10.6979 1.11352 10.8817 1.17713C10.2849 1.47642 9.76836 1.90481 9.33198 2.46233C8.8956 3.01984 8.58414 3.6467 8.39759 4.3429C8.07472 5.54787 8.22202 6.6851 8.83949 7.75458C9.45696 8.82407 10.3682 9.52025 11.5731 9.84312C12.2693 10.0297 12.9653 10.0834 13.6609 10.0043C14.3565 9.92524 14.9777 9.72219 15.5246 9.39517C15.4949 9.55942 15.47 9.69265 15.4498 9.79486C15.4295 9.89706 15.4069 9.99503 15.3818 10.0887C14.8437 12.097 13.6834 13.6157 11.9009 14.6448C10.1184 15.674 8.22302 15.9195 6.21474 15.3813Z" fill="#626161"></path>
  </symbol>
  <symbol xmlns="http://www.w3.org/2000/svg" viewBox="0 0 17 17" id="download">
    <path d="M2 16.5C1.6 16.5 1.25 16.35 0.95 16.05C0.65 15.75 0.5 15.4 0.5 15V11.425H2V15H15V11.425H16.5V15C16.5 15.4 16.35 15.75 16.05 16.05C15.75 16.35 15.4 16.5 15 16.5H2ZM8.5 12.675L3.675 7.85L4.75 6.775L7.75 9.775V0.5H9.25V9.775L12.25 6.775L13.325 7.85L8.5 12.675Z"></path>
  </symbol> 
  <symbol xmlns="http://www.w3.org/2000/svg" viewBox="0 0 41 36" id="email">
    <path d="M34.2002 11C32.6669 11 31.3669 10.4667 30.3002 9.4C29.2335 8.33333 28.7002 7.03333 28.7002 5.5C28.7002 3.96667 29.2335 2.66667 30.3002 1.6C31.3669 0.533333 32.6669 0 34.2002 0C35.7335 0 37.0335 0.533333 38.1002 1.6C39.1669 2.66667 39.7002 3.96667 39.7002 5.5C39.7002 7.03333 39.1669 8.33333 38.1002 9.4C37.0335 10.4667 35.7335 11 34.2002 11ZM3.2002 35.5C2.4002 35.5 1.7002 35.2 1.1002 34.6C0.500195 34 0.200195 33.3 0.200195 32.5V6.5C0.200195 5.7 0.500195 5 1.1002 4.4C1.7002 3.8 2.4002 3.5 3.2002 3.5H24.9002C24.8002 4 24.7335 4.5 24.7002 5C24.6669 5.5 24.6835 6 24.7502 6.5C24.8835 7.66667 25.2085 8.75833 25.7252 9.775C26.2419 10.7917 26.9169 11.6833 27.7502 12.45L20.2002 17.4L3.2002 6.35V9.25L20.2002 20.4L29.9502 14C30.6169 14.3333 31.3002 14.5833 32.0002 14.75C32.7002 14.9167 33.4335 15 34.2002 15C35.3002 15 36.3585 14.8167 37.3752 14.45C38.3919 14.0833 39.3335 13.55 40.2002 12.85V32.5C40.2002 33.3 39.9002 34 39.3002 34.6C38.7002 35.2 38.0002 35.5 37.2002 35.5H3.2002Z"></path>
  </symbol>
  <symbol xmlns="http://www.w3.org/2000/svg" viewBox="0 0 32 32" id="github">
    <path d="M16 0.39502C7.164 0.39502 0 7.55802 0 16.395C0 23.464 4.585 29.462 10.942 31.577C11.742 31.725 12.036 31.23 12.036 30.807C12.036 30.426 12.021 29.165 12.014 27.828C7.562 28.796 6.623 25.94 6.623 25.94C5.895 24.091 4.847 23.599 4.847 23.599C3.395 22.606 4.957 22.626 4.957 22.626C6.563 22.739 7.409 24.275 7.409 24.275C8.836 26.721 11.152 26.014 12.065 25.605C12.208 24.571 12.623 23.865 13.081 23.465C9.527 23.061 5.791 21.688 5.791 15.558C5.791 13.811 6.416 12.384 7.44 11.263C7.274 10.86 6.726 9.23302 7.595 7.02902C7.595 7.02902 8.939 6.59902 11.996 8.66902C13.272 8.31402 14.641 8.13702 16.001 8.13002C17.36 8.13602 18.73 8.31402 20.009 8.66902C23.063 6.59902 24.404 7.02902 24.404 7.02902C25.275 9.23302 24.727 10.86 24.561 11.263C25.587 12.383 26.208 13.811 26.208 15.558C26.208 21.703 22.465 23.056 18.902 23.453C19.476 23.95 19.987 24.923 19.987 26.416C19.987 28.557 19.968 30.28 19.968 30.807C19.968 31.233 20.256 31.732 21.067 31.575C27.421 29.457 32 23.462 32 16.395C32 7.55802 24.836 0.39502 16 0.39502Z"></path>
  </symbol>
  <symbol xmlns="http://www.w3.org/2000/svg" viewBox="0 0 13 13" id="left-double-arrow">
    <path d="M1.76725 12.475L0.825195 11.425L5.26632 6.47498L0.825195 1.52498L1.76725 0.474976L7.15043 6.47498L1.76725 12.475ZM7.44202 12.475L6.49996 11.425L10.9411 6.47498L6.49996 1.52498L7.44202 0.474976L12.8252 6.47498L7.44202 12.475Z"></path>
  </symbol>
  <symbol xmlns="http://www.w3.org/2000/svg" viewBox="0 96 960 960" id="light-mode">
    <path d="M479.765 716Q538 716 579 675.235q41-40.764 41-99Q620 518 579.235 477q-40.764-41-99-41Q422 436 381 476.765q-41 40.764-41 99Q340 634 380.765 675q40.764 41 99 41Zm.235 60q-83 0-141.5-58.5T280 576q0-83 58.5-141.5T480 376q83 0 141.5 58.5T680 576q0 83-58.5 141.5T480 776ZM70 606q-12.75 0-21.375-8.675Q40 588.649 40 575.825 40 563 48.625 554.5T70 546h100q12.75 0 21.375 8.675 8.625 8.676 8.625 21.5 0 12.825-8.625 21.325T170 606H70Zm720 0q-12.75 0-21.375-8.675-8.625-8.676-8.625-21.5 0-12.825 8.625-21.325T790 546h100q12.75 0 21.375 8.675 8.625 8.676 8.625 21.5 0 12.825-8.625 21.325T890 606H790ZM479.825 296Q467 296 458.5 287.375T450 266V166q0-12.75 8.675-21.375 8.676-8.625 21.5-8.625 12.825 0 21.325 8.625T510 166v100q0 12.75-8.675 21.375-8.676 8.625-21.5 8.625Zm0 720q-12.825 0-21.325-8.62-8.5-8.63-8.5-21.38V886q0-12.75 8.675-21.375 8.676-8.625 21.5-8.625 12.825 0 21.325 8.625T510 886v100q0 12.75-8.675 21.38-8.676 8.62-21.5 8.62ZM240 378l-57-56q-9-9-8.629-21.603.37-12.604 8.526-21.5 8.896-8.897 21.5-8.897Q217 270 226 279l56 57q8 9 8 21t-8 20.5q-8 8.5-20.5 8.5t-21.5-8Zm494 495-56-57q-8-9-8-21.375T678.5 774q8.5-9 20.5-9t21 9l57 56q9 9 8.629 21.603-.37 12.604-8.526 21.5-8.896 8.897-21.5 8.897Q743 882 734 873Zm-56-495q-9-9-9-21t9-21l56-57q9-9 21.603-8.629 12.604.37 21.5 8.526 8.897 8.896 8.897 21.5Q786 313 777 322l-57 56q-8 8-20.364 8-12.363 0-21.636-8ZM182.897 873.103q-8.897-8.896-8.897-21.5Q174 839 183 830l57-56q8.8-9 20.9-9 12.1 0 20.709 9Q291 783 291 795t-9 21l-56 57q-9 9-21.603 8.629-12.604-.37-21.5-8.526ZM480 576Z"></path>
  </symbol>
  <symbol xmlns="http://www.w3.org/2000/svg" viewBox="0 0 32 32" id="linkedin">
    <path d="M29 0H3C1.35 0 0 1.35 0 3V29C0 30.65 1.35 32 3 32H29C30.65 32 32 30.65 32 29V3C32 1.35 30.65 0 29 0ZM12 26H8V12H12V26ZM10 10C8.894 10 8 9.106 8 8C8 6.894 8.894 6 10 6C11.106 6 12 6.894 12 8C12 9.106 11.106 10 10 10ZM26 26H22V18C22 16.894 21.106 16 20 16C18.894 16 18 16.894 18 18V26H14V12H18V14.481C18.825 13.35 20.087 12 21.5 12C23.988 12 26 14.238 26 17V26Z"></path>
  </symbol>
  <symbol xmlns="http://www.w3.org/2000/svg" viewBox="0 0 160 51" id="logo-white">
    <path d="M55.092 37V13.6H70.212V18.784H61.284V22.456H68.916V27.64H61.284V31.816H70.572V37H55.092ZM80.7923 37.432C78.5603 37.432 76.7723 36.592 75.4283 34.912C74.1083 33.208 73.4483 30.904 73.4483 28C73.4483 26.032 73.7963 24.352 74.4923 22.96C75.2123 21.544 76.1363 20.464 77.2643 19.72C78.3923 18.952 79.5683 18.568 80.7923 18.568C81.7763 18.568 82.5803 18.736 83.2043 19.072C83.8523 19.384 84.4403 19.816 84.9683 20.368L84.7523 17.776V11.944H90.9443V37H85.9043L85.4723 35.344H85.3283C84.7283 35.944 84.0203 36.448 83.2043 36.856C82.3883 37.24 81.5843 37.432 80.7923 37.432ZM82.4483 32.392C82.9283 32.392 83.3483 32.308 83.7083 32.14C84.0923 31.948 84.4403 31.6 84.7523 31.096V24.472C84.3923 24.136 83.9963 23.908 83.5643 23.788C83.1323 23.668 82.7123 23.608 82.3043 23.608C81.6563 23.608 81.0683 23.932 80.5403 24.58C80.0363 25.228 79.7843 26.344 79.7843 27.928C79.7843 29.536 80.0243 30.688 80.5043 31.384C80.9843 32.056 81.6323 32.392 82.4483 32.392ZM103.115 37.432C101.579 37.432 100.127 37.06 98.7592 36.316C97.4152 35.572 96.3112 34.504 95.4472 33.112C94.6072 31.696 94.1872 29.992 94.1872 28C94.1872 26.008 94.6072 24.316 95.4472 22.924C96.3112 21.508 97.4152 20.428 98.7592 19.684C100.127 18.94 101.579 18.568 103.115 18.568C104.651 18.568 106.091 18.94 107.435 19.684C108.803 20.428 109.907 21.508 110.747 22.924C111.611 24.316 112.043 26.008 112.043 28C112.043 29.992 111.611 31.696 110.747 33.112C109.907 34.504 108.803 35.572 107.435 36.316C106.091 37.06 104.651 37.432 103.115 37.432ZM103.115 32.464C104.051 32.464 104.711 32.068 105.095 31.276C105.503 30.46 105.707 29.368 105.707 28C105.707 26.632 105.503 25.552 105.095 24.76C104.711 23.944 104.051 23.536 103.115 23.536C102.179 23.536 101.507 23.944 101.099 24.76C100.715 25.552 100.523 26.632 100.523 28C100.523 29.368 100.715 30.46 101.099 31.276C101.507 32.068 102.179 32.464 103.115 32.464ZM120.812 37.432C119.42 37.432 118.316 37.156 117.5 36.604C116.708 36.028 116.132 35.236 115.772 34.228C115.436 33.196 115.268 32.008 115.268 30.664V11.944H121.46V30.88C121.46 31.48 121.568 31.9 121.784 32.14C122.024 32.356 122.252 32.464 122.468 32.464C122.588 32.464 122.684 32.464 122.756 32.464C122.852 32.44 122.972 32.416 123.116 32.392L123.836 36.928C123.524 37.072 123.116 37.192 122.612 37.288C122.108 37.384 121.508 37.432 120.812 37.432ZM133.982 37.432C132.446 37.432 130.994 37.06 129.626 36.316C128.282 35.572 127.178 34.504 126.314 33.112C125.474 31.696 125.054 29.992 125.054 28C125.054 26.008 125.474 24.316 126.314 22.924C127.178 21.508 128.282 20.428 129.626 19.684C130.994 18.94 132.446 18.568 133.982 18.568C135.518 18.568 136.958 18.94 138.302 19.684C139.67 20.428 140.774 21.508 141.614 22.924C142.478 24.316 142.91 26.008 142.91 28C142.91 29.992 142.478 31.696 141.614 33.112C140.774 34.504 139.67 35.572 138.302 36.316C136.958 37.06 135.518 37.432 133.982 37.432ZM133.982 32.464C134.918 32.464 135.578 32.068 135.962 31.276C136.37 30.46 136.574 29.368 136.574 28C136.574 26.632 136.37 25.552 135.962 24.76C135.578 23.944 134.918 23.536 133.982 23.536C133.046 23.536 132.374 23.944 131.966 24.76C131.582 25.552 131.39 26.632 131.39 28C131.39 29.368 131.582 30.46 131.966 31.276C132.374 32.068 133.046 32.464 133.982 32.464ZM146.135 37V19H151.175L151.607 22.096H151.751C152.423 20.872 153.215 19.984 154.127 19.432C155.063 18.856 155.975 18.568 156.863 18.568C157.415 18.568 157.859 18.604 158.195 18.676C158.555 18.724 158.855 18.808 159.095 18.928L158.087 24.256C157.775 24.184 157.463 24.124 157.151 24.076C156.839 24.004 156.479 23.968 156.071 23.968C155.423 23.968 154.739 24.196 154.019 24.652C153.323 25.084 152.759 25.864 152.327 26.992V37H146.135Z" fill="white"></path>
    <g filter="url(#filter0_d_414_573)">
      <circle cx="24.5" cy="24" r="20" fill="white"></circle>
    </g>
    <path d="M16.329 30.5582L20.8466 13.6984L32.6024 16.8483L31.7156 20.1577L24.0349 18.0997L23.1084 21.5573L30.1882 23.4543L29.2992 26.7719L22.2194 24.8749L21.2908 28.3407L28.9715 30.3988L28.0848 33.7081L16.329 30.5582Z" fill="#0D0D0D"></path>
    <defs>
      <filter id="filter0_d_414_573" x="0.5" y="3" width="48" height="48" filterUnits="userSpaceOnUse" color-interpolation-filters="sRGB">
        <feFlood flood-opacity="0" result="BackgroundImageFix"></feFlood>
        <feColorMatrix in="SourceAlpha" type="matrix" values="0 0 0 0 0 0 0 0 0 0 0 0 0 0 0 0 0 0 127 0" result="hardAlpha"></feColorMatrix>
        <feOffset dy="3"></feOffset>
        <feGaussianBlur stdDeviation="2"></feGaussianBlur>
        <feComposite in2="hardAlpha" operator="out"></feComposite>
        <feColorMatrix type="matrix" values="0 0 0 0 0 0 0 0 0 0 0 0 0 0 0 0 0 0 0.25 0"></feColorMatrix>
        <feBlend mode="normal" in2="BackgroundImageFix" result="effect1_dropShadow_414_573"></feBlend>
        <feBlend mode="normal" in="SourceGraphic" in2="effect1_dropShadow_414_573" result="shape"></feBlend>
      </filter>
    </defs>
  </symbol>
  <symbol xmlns="http://www.w3.org/2000/svg" viewBox="0 0 159 51" id="logo-black">
    <path d="M54.592 37V13.6H69.712V18.784H60.784V22.456H68.416V27.64H60.784V31.816H70.072V37H54.592ZM80.2923 37.432C78.0603 37.432 76.2723 36.592 74.9283 34.912C73.6083 33.208 72.9483 30.904 72.9483 28C72.9483 26.032 73.2963 24.352 73.9923 22.96C74.7123 21.544 75.6363 20.464 76.7643 19.72C77.8923 18.952 79.0683 18.568 80.2923 18.568C81.2763 18.568 82.0803 18.736 82.7043 19.072C83.3523 19.384 83.9403 19.816 84.4683 20.368L84.2523 17.776V11.944H90.4443V37H85.4043L84.9723 35.344H84.8283C84.2283 35.944 83.5203 36.448 82.7043 36.856C81.8883 37.24 81.0843 37.432 80.2923 37.432ZM81.9483 32.392C82.4283 32.392 82.8483 32.308 83.2083 32.14C83.5923 31.948 83.9403 31.6 84.2523 31.096V24.472C83.8923 24.136 83.4963 23.908 83.0643 23.788C82.6323 23.668 82.2123 23.608 81.8043 23.608C81.1563 23.608 80.5683 23.932 80.0403 24.58C79.5363 25.228 79.2843 26.344 79.2843 27.928C79.2843 29.536 79.5243 30.688 80.0043 31.384C80.4843 32.056 81.1323 32.392 81.9483 32.392ZM102.615 37.432C101.079 37.432 99.6272 37.06 98.2592 36.316C96.9152 35.572 95.8112 34.504 94.9472 33.112C94.1072 31.696 93.6872 29.992 93.6872 28C93.6872 26.008 94.1072 24.316 94.9472 22.924C95.8112 21.508 96.9152 20.428 98.2592 19.684C99.6272 18.94 101.079 18.568 102.615 18.568C104.151 18.568 105.591 18.94 106.935 19.684C108.303 20.428 109.407 21.508 110.247 22.924C111.111 24.316 111.543 26.008 111.543 28C111.543 29.992 111.111 31.696 110.247 33.112C109.407 34.504 108.303 35.572 106.935 36.316C105.591 37.06 104.151 37.432 102.615 37.432ZM102.615 32.464C103.551 32.464 104.211 32.068 104.595 31.276C105.003 30.46 105.207 29.368 105.207 28C105.207 26.632 105.003 25.552 104.595 24.76C104.211 23.944 103.551 23.536 102.615 23.536C101.679 23.536 101.007 23.944 100.599 24.76C100.215 25.552 100.023 26.632 100.023 28C100.023 29.368 100.215 30.46 100.599 31.276C101.007 32.068 101.679 32.464 102.615 32.464ZM120.312 37.432C118.92 37.432 117.816 37.156 117 36.604C116.208 36.028 115.632 35.236 115.272 34.228C114.936 33.196 114.768 32.008 114.768 30.664V11.944H120.96V30.88C120.96 31.48 121.068 31.9 121.284 32.14C121.524 32.356 121.752 32.464 121.968 32.464C122.088 32.464 122.184 32.464 122.256 32.464C122.352 32.44 122.472 32.416 122.616 32.392L123.336 36.928C123.024 37.072 122.616 37.192 122.112 37.288C121.608 37.384 121.008 37.432 120.312 37.432ZM133.482 37.432C131.946 37.432 130.494 37.06 129.126 36.316C127.782 35.572 126.678 34.504 125.814 33.112C124.974 31.696 124.554 29.992 124.554 28C124.554 26.008 124.974 24.316 125.814 22.924C126.678 21.508 127.782 20.428 129.126 19.684C130.494 18.94 131.946 18.568 133.482 18.568C135.018 18.568 136.458 18.94 137.802 19.684C139.17 20.428 140.274 21.508 141.114 22.924C141.978 24.316 142.41 26.008 142.41 28C142.41 29.992 141.978 31.696 141.114 33.112C140.274 34.504 139.17 35.572 137.802 36.316C136.458 37.06 135.018 37.432 133.482 37.432ZM133.482 32.464C134.418 32.464 135.078 32.068 135.462 31.276C135.87 30.46 136.074 29.368 136.074 28C136.074 26.632 135.87 25.552 135.462 24.76C135.078 23.944 134.418 23.536 133.482 23.536C132.546 23.536 131.874 23.944 131.466 24.76C131.082 25.552 130.89 26.632 130.89 28C130.89 29.368 131.082 30.46 131.466 31.276C131.874 32.068 132.546 32.464 133.482 32.464ZM145.635 37V19H150.675L151.107 22.096H151.251C151.923 20.872 152.715 19.984 153.627 19.432C154.563 18.856 155.475 18.568 156.363 18.568C156.915 18.568 157.359 18.604 157.695 18.676C158.055 18.724 158.355 18.808 158.595 18.928L157.587 24.256C157.275 24.184 156.963 24.124 156.651 24.076C156.339 24.004 155.979 23.968 155.571 23.968C154.923 23.968 154.239 24.196 153.519 24.652C152.823 25.084 152.259 25.864 151.827 26.992V37H145.635Z" fill="#0D0D0D"></path>
    <g filter="url(#filter0_d_414_827)">
      <circle cx="24" cy="24" r="20" fill="black"></circle>
    </g>
    <path d="M15.829 30.5582L20.3466 13.6984L32.1024 16.8483L31.2156 20.1577L23.5349 18.0997L22.6084 21.5573L29.6882 23.4543L28.7992 26.7719L21.7194 24.8749L20.7908 28.3407L28.4715 30.3988L27.5848 33.7081L15.829 30.5582Z" fill="white"></path>
    <defs>
      <filter id="filter0_d_414_827" x="0" y="3" width="48" height="48" filterUnits="userSpaceOnUse" color-interpolation-filters="sRGB">
        <feFlood flood-opacity="0" result="BackgroundImageFix"></feFlood>
        <feColorMatrix in="SourceAlpha" type="matrix" values="0 0 0 0 0 0 0 0 0 0 0 0 0 0 0 0 0 0 127 0" result="hardAlpha"></feColorMatrix>
        <feOffset dy="3"></feOffset>
        <feGaussianBlur stdDeviation="2"></feGaussianBlur>
        <feComposite in2="hardAlpha" operator="out"></feComposite>
        <feColorMatrix type="matrix" values="0 0 0 0 0 0 0 0 0 0 0 0 0 0 0 0 0 0 0.25 0"></feColorMatrix>
        <feBlend mode="normal" in2="BackgroundImageFix" result="effect1_dropShadow_414_827"></feBlend>
        <feBlend mode="normal" in="SourceGraphic" in2="effect1_dropShadow_414_827" result="shape"></feBlend>
      </filter>
    </defs>
  </symbol>
  <symbol xmlns="http://www.w3.org/2000/svg" viewBox="0 0 160 51" id="logo">
    <path d="M55.092 37V13.6H70.212V18.784H61.284V22.456H68.916V27.64H61.284V31.816H70.572V37H55.092ZM80.7923 37.432C78.5603 37.432 76.7723 36.592 75.4283 34.912C74.1083 33.208 73.4483 30.904 73.4483 28C73.4483 26.032 73.7963 24.352 74.4923 22.96C75.2123 21.544 76.1363 20.464 77.2643 19.72C78.3923 18.952 79.5683 18.568 80.7923 18.568C81.7763 18.568 82.5803 18.736 83.2043 19.072C83.8523 19.384 84.4403 19.816 84.9683 20.368L84.7523 17.776V11.944H90.9443V37H85.9043L85.4723 35.344H85.3283C84.7283 35.944 84.0203 36.448 83.2043 36.856C82.3883 37.24 81.5843 37.432 80.7923 37.432ZM82.4483 32.392C82.9283 32.392 83.3483 32.308 83.7083 32.14C84.0923 31.948 84.4403 31.6 84.7523 31.096V24.472C84.3923 24.136 83.9963 23.908 83.5643 23.788C83.1323 23.668 82.7123 23.608 82.3043 23.608C81.6563 23.608 81.0683 23.932 80.5403 24.58C80.0363 25.228 79.7843 26.344 79.7843 27.928C79.7843 29.536 80.0243 30.688 80.5043 31.384C80.9843 32.056 81.6323 32.392 82.4483 32.392ZM103.115 37.432C101.579 37.432 100.127 37.06 98.7592 36.316C97.4152 35.572 96.3112 34.504 95.4472 33.112C94.6072 31.696 94.1872 29.992 94.1872 28C94.1872 26.008 94.6072 24.316 95.4472 22.924C96.3112 21.508 97.4152 20.428 98.7592 19.684C100.127 18.94 101.579 18.568 103.115 18.568C104.651 18.568 106.091 18.94 107.435 19.684C108.803 20.428 109.907 21.508 110.747 22.924C111.611 24.316 112.043 26.008 112.043 28C112.043 29.992 111.611 31.696 110.747 33.112C109.907 34.504 108.803 35.572 107.435 36.316C106.091 37.06 104.651 37.432 103.115 37.432ZM103.115 32.464C104.051 32.464 104.711 32.068 105.095 31.276C105.503 30.46 105.707 29.368 105.707 28C105.707 26.632 105.503 25.552 105.095 24.76C104.711 23.944 104.051 23.536 103.115 23.536C102.179 23.536 101.507 23.944 101.099 24.76C100.715 25.552 100.523 26.632 100.523 28C100.523 29.368 100.715 30.46 101.099 31.276C101.507 32.068 102.179 32.464 103.115 32.464ZM120.812 37.432C119.42 37.432 118.316 37.156 117.5 36.604C116.708 36.028 116.132 35.236 115.772 34.228C115.436 33.196 115.268 32.008 115.268 30.664V11.944H121.46V30.88C121.46 31.48 121.568 31.9 121.784 32.14C122.024 32.356 122.252 32.464 122.468 32.464C122.588 32.464 122.684 32.464 122.756 32.464C122.852 32.44 122.972 32.416 123.116 32.392L123.836 36.928C123.524 37.072 123.116 37.192 122.612 37.288C122.108 37.384 121.508 37.432 120.812 37.432ZM133.982 37.432C132.446 37.432 130.994 37.06 129.626 36.316C128.282 35.572 127.178 34.504 126.314 33.112C125.474 31.696 125.054 29.992 125.054 28C125.054 26.008 125.474 24.316 126.314 22.924C127.178 21.508 128.282 20.428 129.626 19.684C130.994 18.94 132.446 18.568 133.982 18.568C135.518 18.568 136.958 18.94 138.302 19.684C139.67 20.428 140.774 21.508 141.614 22.924C142.478 24.316 142.91 26.008 142.91 28C142.91 29.992 142.478 31.696 141.614 33.112C140.774 34.504 139.67 35.572 138.302 36.316C136.958 37.06 135.518 37.432 133.982 37.432ZM133.982 32.464C134.918 32.464 135.578 32.068 135.962 31.276C136.37 30.46 136.574 29.368 136.574 28C136.574 26.632 136.37 25.552 135.962 24.76C135.578 23.944 134.918 23.536 133.982 23.536C133.046 23.536 132.374 23.944 131.966 24.76C131.582 25.552 131.39 26.632 131.39 28C131.39 29.368 131.582 30.46 131.966 31.276C132.374 32.068 133.046 32.464 133.982 32.464ZM146.135 37V19H151.175L151.607 22.096H151.751C152.423 20.872 153.215 19.984 154.127 19.432C155.063 18.856 155.975 18.568 156.863 18.568C157.415 18.568 157.859 18.604 158.195 18.676C158.555 18.724 158.855 18.808 159.095 18.928L158.087 24.256C157.775 24.184 157.463 24.124 157.151 24.076C156.839 24.004 156.479 23.968 156.071 23.968C155.423 23.968 154.739 24.196 154.019 24.652C153.323 25.084 152.759 25.864 152.327 26.992V37H146.135Z" fill="white"></path>
    <g filter="url(#filter0_d_414_573)">
      <circle cx="24.5" cy="24" r="20" fill="white"></circle>
    </g>
    <path d="M16.329 30.5582L20.8466 13.6984L32.6024 16.8483L31.7156 20.1577L24.0349 18.0997L23.1084 21.5573L30.1882 23.4543L29.2992 26.7719L22.2194 24.8749L21.2908 28.3407L28.9715 30.3988L28.0848 33.7081L16.329 30.5582Z" fill="#0D0D0D"></path>
    <defs>
      <filter id="filter0_d_414_573" x="0.5" y="3" width="48" height="48" filterUnits="userSpaceOnUse" color-interpolation-filters="sRGB">
        <feFlood flood-opacity="0" result="BackgroundImageFix"></feFlood>
        <feColorMatrix in="SourceAlpha" type="matrix" values="0 0 0 0 0 0 0 0 0 0 0 0 0 0 0 0 0 0 127 0" result="hardAlpha"></feColorMatrix>
        <feOffset dy="3"></feOffset>
        <feGaussianBlur stdDeviation="2"></feGaussianBlur>
        <feComposite in2="hardAlpha" operator="out"></feComposite>
        <feColorMatrix type="matrix" values="0 0 0 0 0 0 0 0 0 0 0 0 0 0 0 0 0 0 0.25 0"></feColorMatrix>
        <feBlend mode="normal" in2="BackgroundImageFix" result="effect1_dropShadow_414_573"></feBlend>
        <feBlend mode="normal" in="SourceGraphic" in2="effect1_dropShadow_414_573" result="shape"></feBlend>
      </filter>
    </defs>
  </symbol>
  <symbol xmlns="http://www.w3.org/2000/svg" viewBox="0 96 960 960" id="menu">
    <path d="M120 816v-60h720v60H120Zm0-210v-60h720v60H120Zm0-210v-60h720v60H120Z"></path>
  </symbol>
  <symbol xmlns="http://www.w3.org/2000/svg" viewBox="0 96 960 960" id="open-in-new">
    <path d="M180 936q-24 0-42-18t-18-42V276q0-24 18-42t42-18h279v60H180v600h600V597h60v279q0 24-18 42t-42 18H180Zm202-219-42-43 398-398H519v-60h321v321h-60V319L382 717Z"></path>
  </symbol>
  <symbol xmlns="http://www.w3.org/2000/svg" viewBox="0 0 16 17" id="right-arrow">
    <path d="M8 16.8635L6.95 15.7885L13.125 9.61346H0V8.11346H13.125L6.95 1.93846L8 0.863464L16 8.86346L8 16.8635Z"></path>
  </symbol>
  <symbol xmlns="http://www.w3.org/2000/svg" viewBox="0 0 24 24" id="server">
    <path d="M0 2.4C0 1.08 1.08 0 2.4 0H21.6C22.926 0 24 1.074 24 2.4V4.8C24 6.126 22.926 7.2 21.6 7.2H2.4C1.074 7.2 0 6.126 0 4.8V2.4ZM0 10.8C0 9.48 1.08 8.4 2.4 8.4H21.6C22.926 8.4 24 9.474 24 10.8V13.2C24 14.526 22.926 15.6 21.6 15.6H2.4C1.074 15.6 0 14.526 0 13.2V10.8ZM0 19.2C0 17.88 1.08 16.8 2.4 16.8H21.6C22.926 16.8 24 17.874 24 19.2V21.6C24 22.926 22.926 24 21.6 24H2.4C1.074 24 0 22.926 0 21.6V19.2ZM14.4 2.4V4.8H16.8V2.4H14.4ZM19.2 2.4V4.8H21.6V2.4H19.2ZM14.4 10.8V13.2H16.8V10.8H14.4ZM19.2 10.8V13.2H21.6V10.8H19.2ZM14.4 19.2V21.6H16.8V19.2H14.4ZM19.2 19.2V21.6H21.6V19.2H19.2Z"></path>
  </symbol>
  <symbol xmlns="http://www.w3.org/2000/svg" viewBox="0 0 16 15" id="top-right-arrow">
    <path d="M15.2572 14.2902L13.3789 14.2681V3.35214L1.77794 14.9531L0.452111 13.6273L12.0531 2.02631L1.13711 2.0263L1.11501 0.148049L15.2572 0.148059V14.2902Z"></path>
  </symbol>
  <symbol xmlns="http://www.w3.org/2000/svg" viewBox="0 0 32 26" id="twitter">
    <path d="M32.0001 3.075C30.8251 3.6 29.5561 3.95 28.2311 4.106C29.5871 3.293 30.6251 2.006 31.1181 0.475C29.8491 1.225 28.4431 1.775 26.9491 2.069C25.7491 0.794 24.0431 0 22.1551 0C18.5301 0 15.5921 2.938 15.5921 6.563C15.5921 7.075 15.6481 7.575 15.7611 8.057C10.3051 7.782 5.46714 5.169 2.23014 1.195C1.66714 2.164 1.34314 3.295 1.34314 4.495C1.34314 6.77 2.49914 8.782 4.26214 9.958C3.18714 9.927 2.17514 9.627 1.28714 9.139C1.28714 9.164 1.28714 9.195 1.28714 9.22C1.28714 12.401 3.55014 15.058 6.55614 15.657C6.00614 15.807 5.42514 15.888 4.82514 15.888C4.40014 15.888 3.99414 15.844 3.58814 15.769C4.42614 18.375 6.85114 20.275 9.71914 20.332C7.46914 22.094 4.64414 23.145 1.56314 23.145C1.03214 23.145 0.513141 23.114 -0.00585938 23.051C2.90714 24.92 6.35614 26.001 10.0631 26.001C22.1381 26.001 28.7441 15.995 28.7441 7.32C28.7441 7.033 28.7381 6.751 28.7251 6.47C30.0061 5.551 31.1191 4.395 32.0001 3.076V3.075Z"></path>
  </symbol>
</svg>