<svg width="196" height="49" viewBox="0 0 196 49" fill="none" xmlns="http://www.w3.org/2000/svg">
<path d="M14.8 31.8L20.9 25.7L24.9 29.7L32.5 22.15V26H35.5V17H26.5V20H30.35L24.9 25.45L20.9 21.45L12.7 29.7L14.8 31.8ZM9 42.5C8.2 42.5 7.5 42.2 6.9 41.6C6.3 41 6 40.3 6 39.5V9.5C6 8.7 6.3 8 6.9 7.4C7.5 6.8 8.2 6.5 9 6.5H39C39.8 6.5 40.5 6.8 41.1 7.4C41.7 8 42 8.7 42 9.5V39.5C42 40.3 41.7 41 41.1 41.6C40.5 42.2 39.8 42.5 39 42.5H9ZM9 39.5H39V9.5H9V39.5Z" fill="#20CB64"/>
<path d="M65.6406 36.5H60.875V13.6562H73.9688V17.625H65.6406V23.5156H73.3906V27.4688H65.6406V36.5ZM82.8281 19.0312V36.5H78.0625V19.0312H82.8281ZM80.4531 12.1875C81.1615 12.1875 81.7708 12.3542 82.2812 12.6875C82.7917 13.0104 83.0469 13.6198 83.0469 14.5156C83.0469 15.401 82.7917 16.0156 82.2812 16.3594C81.7708 16.6927 81.1615 16.8594 80.4531 16.8594C79.7344 16.8594 79.1198 16.6927 78.6094 16.3594C78.1094 16.0156 77.8594 15.401 77.8594 14.5156C77.8594 13.6198 78.1094 13.0104 78.6094 12.6875C79.1198 12.3542 79.7344 12.1875 80.4531 12.1875ZM168.375 36.8125C166.646 36.8125 165.172 36.5 163.953 35.875C162.734 35.2396 161.807 34.2604 161.172 32.9375C160.536 31.6146 160.219 29.9219 160.219 27.8594C160.219 25.724 160.578 23.9844 161.297 22.6406C162.026 21.2865 163.031 20.2917 164.312 19.6562C165.604 19.0208 167.099 18.7031 168.797 18.7031C170.005 18.7031 171.047 18.8229 171.922 19.0625C172.807 19.2917 173.578 19.5677 174.234 19.8906L172.828 23.5781C172.078 23.276 171.38 23.0312 170.734 22.8438C170.089 22.6458 169.443 22.5469 168.797 22.5469C167.964 22.5469 167.271 22.7448 166.719 23.1406C166.167 23.526 165.755 24.1094 165.484 24.8906C165.214 25.6719 165.078 26.651 165.078 27.8281C165.078 28.9844 165.224 29.9427 165.516 30.7031C165.807 31.4635 166.229 32.0312 166.781 32.4062C167.333 32.7708 168.005 32.9531 168.797 32.9531C169.786 32.9531 170.667 32.8229 171.438 32.5625C172.208 32.2917 172.958 31.9167 173.688 31.4375V35.5156C172.958 35.974 172.193 36.3021 171.391 36.5C170.599 36.7083 169.594 36.8125 168.375 36.8125ZM182.516 12.1875V23.0625C182.516 23.7188 182.49 24.375 182.438 25.0312C182.385 25.6875 182.328 26.3438 182.266 27H182.328C182.651 26.5417 182.979 26.0885 183.312 25.6406C183.656 25.1927 184.021 24.7604 184.406 24.3438L189.297 19.0312H194.672L187.734 26.6094L195.094 36.5H189.594L184.562 29.4219L182.516 31.0625V36.5H177.75V12.1875H182.516Z" fill="#20CB64"/>
<path d="M97.7656 18.7031C99.6302 18.7031 101.13 19.2135 102.266 20.2344C103.401 21.2448 103.969 22.8698 103.969 25.1094V36.5H99.2031V26.2969C99.2031 25.0469 98.974 24.1042 98.5156 23.4688C98.0677 22.8333 97.3594 22.5156 96.3906 22.5156C94.9323 22.5156 93.9375 23.0104 93.4062 24C92.875 24.9896 92.6094 26.4167 92.6094 28.2812V36.5H87.8438V19.0312H91.4844L92.125 21.2656H92.3906C92.7656 20.6615 93.2292 20.1719 93.7812 19.7969C94.3438 19.4219 94.9635 19.1458 95.6406 18.9688C96.3281 18.7917 97.0365 18.7031 97.7656 18.7031ZM118.062 36.5H113.219V17.6875H107.016V13.6562H124.266V17.6875H118.062V36.5ZM137.156 18.7031C137.396 18.7031 137.672 18.7188 137.984 18.75C138.307 18.7708 138.568 18.8021 138.766 18.8438L138.406 23.3125C138.25 23.2604 138.026 23.224 137.734 23.2031C137.453 23.1719 137.208 23.1562 137 23.1562C136.385 23.1562 135.786 23.2344 135.203 23.3906C134.63 23.5469 134.115 23.8021 133.656 24.1562C133.198 24.5 132.833 24.9583 132.562 25.5312C132.302 26.0938 132.172 26.7865 132.172 27.6094V36.5H127.406V19.0312H131.016L131.719 21.9688H131.953C132.297 21.375 132.724 20.8333 133.234 20.3438C133.755 19.8438 134.344 19.4479 135 19.1562C135.667 18.8542 136.385 18.7031 137.156 18.7031ZM149.094 18.6719C151.438 18.6719 153.234 19.1823 154.484 20.2031C155.734 21.224 156.359 22.776 156.359 24.8594V36.5H153.031L152.109 34.125H151.984C151.484 34.75 150.974 35.2604 150.453 35.6562C149.932 36.0521 149.333 36.3438 148.656 36.5312C147.979 36.7188 147.156 36.8125 146.188 36.8125C145.156 36.8125 144.229 36.6146 143.406 36.2188C142.594 35.8229 141.953 35.2188 141.484 34.4062C141.016 33.5833 140.781 32.5417 140.781 31.2812C140.781 29.4271 141.432 28.0625 142.734 27.1875C144.036 26.3021 145.99 25.8125 148.594 25.7188L151.625 25.625V24.8594C151.625 23.9427 151.385 23.2708 150.906 22.8438C150.427 22.4167 149.76 22.2031 148.906 22.2031C148.062 22.2031 147.234 22.3229 146.422 22.5625C145.609 22.8021 144.797 23.1042 143.984 23.4688L142.406 20.25C143.333 19.7604 144.37 19.375 145.516 19.0938C146.672 18.8125 147.865 18.6719 149.094 18.6719ZM151.625 28.4062L149.781 28.4688C148.24 28.5104 147.167 28.7865 146.562 29.2969C145.969 29.8073 145.672 30.4792 145.672 31.3125C145.672 32.0417 145.885 32.5625 146.312 32.875C146.74 33.1771 147.297 33.3281 147.984 33.3281C149.005 33.3281 149.865 33.026 150.562 32.4219C151.271 31.8177 151.625 30.9583 151.625 29.8438V28.4062Z" fill="black"/>
</svg>
