<svg width="276" height="83" viewBox="0 0 276 83" fill="none" xmlns="http://www.w3.org/2000/svg">
<path d="M19.7333 51.2333L27.8667 43.1L33.2 48.4333L43.3333 38.3667V43.5H47.3333V31.5H35.3333V35.5H40.4667L33.2 42.7667L27.8667 37.4333L16.9333 48.4333L19.7333 51.2333ZM12 65.5C10.9333 65.5 10 65.1 9.2 64.3C8.4 63.5 8 62.5667 8 61.5V21.5C8 20.4333 8.4 19.5 9.2 18.7C10 17.9 10.9333 17.5 12 17.5H52C53.0667 17.5 54 17.9 54.8 18.7C55.6 19.5 56 20.4333 56 21.5V61.5C56 62.5667 55.6 63.5 54.8 64.3C54 65.1 53.0667 65.5 52 65.5H12ZM12 61.5H52V21.5H12V61.5Z" fill="white"/>
<path d="M87.416 67V21.64H106.568V27.912H96.656V40.176H105.056V46.616H96.656V67H87.416ZM110.813 67V34.632H119.269V67H110.813ZM110.757 29.312V22.984H119.269V29.312H110.757ZM125.084 67V34.632H133.54V37.88C134.697 36.7227 135.911 35.808 137.18 35.136C138.487 34.4267 139.868 34.072 141.324 34.072C142.668 34.072 143.751 34.408 144.572 35.08C145.431 35.752 146.065 36.648 146.476 37.768C146.887 38.8507 147.092 40.0827 147.092 41.464V67H138.692V42.864C138.692 41.968 138.543 41.296 138.244 40.848C137.983 40.4 137.46 40.176 136.676 40.176C136.228 40.176 135.724 40.3067 135.164 40.568C134.641 40.792 134.1 41.1093 133.54 41.52V67H125.084ZM157.461 67V28.528H150.461V21.64H173.645V28.528H166.757V67H157.461ZM177.368 67V34.632H185.824V39.84C186.906 37.936 187.97 36.536 189.016 35.64C190.098 34.7067 191.368 34.24 192.824 34.24C193.085 34.24 193.309 34.2587 193.496 34.296C193.72 34.296 193.925 34.3333 194.112 34.408V42.92C193.701 42.7333 193.234 42.584 192.712 42.472C192.189 42.3227 191.648 42.248 191.088 42.248C190.042 42.248 189.09 42.528 188.232 43.088C187.373 43.6107 186.57 44.376 185.824 45.384V67H177.368ZM204.313 67.56C202.782 67.56 201.457 67.168 200.337 66.384C199.254 65.6 198.433 64.6107 197.873 63.416C197.313 62.2213 197.033 60.9893 197.033 59.72C197.033 57.704 197.425 56.0053 198.209 54.624C198.993 53.2427 200.02 52.0853 201.289 51.152C202.558 50.2187 203.977 49.416 205.545 48.744C207.113 48.072 208.681 47.456 210.249 46.896V43.872C210.249 43.1627 210.193 42.5467 210.081 42.024C209.969 41.5013 209.745 41.1093 209.409 40.848C209.11 40.5493 208.662 40.4 208.065 40.4C207.468 40.4 207.001 40.5307 206.665 40.792C206.366 41.016 206.142 41.3707 205.993 41.856C205.881 42.304 205.806 42.808 205.769 43.368L205.601 45.608L197.593 45.272C197.78 41.464 198.769 38.6453 200.561 36.816C202.39 34.9867 205.134 34.072 208.793 34.072C212.078 34.072 214.505 34.9867 216.073 36.816C217.641 38.608 218.425 40.9787 218.425 43.928V58.992C218.425 60.2613 218.444 61.4 218.481 62.408C218.556 63.3787 218.63 64.256 218.705 65.04C218.817 65.7867 218.91 66.44 218.985 67H211.369C211.257 66.1787 211.126 65.2827 210.977 64.312C210.828 63.3413 210.716 62.688 210.641 62.352C210.268 63.696 209.558 64.9093 208.513 65.992C207.468 67.0373 206.068 67.56 204.313 67.56ZM207.393 61.568C207.804 61.568 208.196 61.4747 208.569 61.288C208.942 61.1013 209.26 60.8587 209.521 60.56C209.82 60.2613 210.062 59.9813 210.249 59.72V50.816C209.465 51.3013 208.737 51.7867 208.065 52.272C207.393 52.72 206.814 53.224 206.329 53.784C205.844 54.344 205.47 54.96 205.209 55.632C204.948 56.304 204.817 57.0693 204.817 57.928C204.817 59.048 205.041 59.944 205.489 60.616C205.937 61.2507 206.572 61.568 207.393 61.568ZM234.04 67.56C231.651 67.56 229.654 67.112 228.048 66.216C226.443 65.2827 225.23 63.976 224.408 62.296C223.624 60.616 223.232 58.6187 223.232 56.304V45.384C223.232 42.9573 223.624 40.9227 224.408 39.28C225.23 37.6 226.443 36.312 228.048 35.416C229.654 34.52 231.651 34.072 234.04 34.072C236.355 34.072 238.296 34.4453 239.864 35.192C241.432 35.9013 242.59 36.984 243.336 38.44C244.12 39.896 244.512 41.7253 244.512 43.928V47.008H236.448V43.704C236.448 42.7333 236.355 41.9867 236.168 41.464C236.019 40.904 235.758 40.512 235.384 40.288C235.048 40.064 234.6 39.952 234.04 39.952C233.48 39.952 233.032 40.1013 232.696 40.4C232.36 40.6613 232.118 41.128 231.968 41.8C231.819 42.4347 231.744 43.3307 231.744 44.488V57.2C231.744 58.9547 231.931 60.1493 232.304 60.784C232.715 61.3813 233.312 61.68 234.096 61.68C234.694 61.68 235.16 61.5493 235.496 61.288C235.832 61.0267 236.075 60.616 236.224 60.056C236.374 59.496 236.448 58.7867 236.448 57.928V54.008H244.512V57.536C244.512 59.7013 244.12 61.5493 243.336 63.08C242.552 64.5733 241.376 65.6933 239.808 66.44C238.24 67.1867 236.318 67.56 234.04 67.56ZM249.443 67V21.64H257.843V47.176L265.963 34.632H275.371L266.971 47.792L275.259 67H266.131L260.363 51.376L257.843 54.68V67H249.443Z" fill="white"/>
</svg>
